<svg xmlns="http://www.w3.org/2000/svg" viewBox="0 0 1200 675" width="1200" height="675">
  <defs>
    <linearGradient id="cbg" x1="0" y1="0" x2="0" y2="1">
      <stop offset="0" stop-color="#1A2027"/>
      <stop offset="1" stop-color="#12161B"/>
    </linearGradient>
    <linearGradient id="cturf" x1="0" y1="1" x2="0" y2="0">
      <stop offset="0" stop-color="#134A38"/>
      <stop offset="1" stop-color="#0D3527"/>
    </linearGradient>
    <radialGradient id="cglow" cx="0.5" cy="0.4" r="0.6">
      <stop offset="0" stop-color="#10B981" stop-opacity="0.18"/>
      <stop offset="1" stop-color="#10B981" stop-opacity="0"/>
    </radialGradient>
  </defs>

  <rect width="1200" height="675" fill="url(#cbg)"/>
  <ellipse cx="600" cy="300" rx="520" ry="300" fill="url(#cglow)"/>

  <polygon points="180,560 1020,560 760,210 440,210" fill="url(#cturf)"/>
  <polygon points="180,560 1020,560 760,210 440,210" fill="none" stroke="#CFE9DF" stroke-width="3" stroke-opacity="0.85"/>
  <line x1="246" y1="470" x2="954" y2="470" stroke="#CFE9DF" stroke-width="2.2" stroke-opacity="0.6"/>
  <line x1="380" y1="290" x2="820" y2="290" stroke="#CFE9DF" stroke-width="2.2" stroke-opacity="0.6"/>
  <line x1="605" y1="470" x2="598" y2="290" stroke="#CFE9DF" stroke-width="2.2" stroke-opacity="0.6"/>
  <line x1="310" y1="385" x2="890" y2="385" stroke="#E8F2EE" stroke-width="5" stroke-opacity="0.9"/>
  <line x1="310" y1="374" x2="310" y2="396" stroke="#E8F2EE" stroke-width="3"/>
  <line x1="890" y1="374" x2="890" y2="396" stroke="#E8F2EE" stroke-width="3"/>

  <circle cx="650" cy="360" r="10" fill="#E6F8EC" stroke="#10B981" stroke-width="2.5"/>
</svg>
