<svg xmlns="http://www.w3.org/2000/svg" viewBox="0 0 1600 600" width="1600" height="600">
  <defs>
    <linearGradient id="sky" x1="0" y1="0" x2="0" y2="1">
      <stop offset="0" stop-color="#0E141A"/>
      <stop offset="1" stop-color="#0A1712"/>
    </linearGradient>
    <linearGradient id="turf" x1="0" y1="1" x2="0" y2="0">
      <stop offset="0" stop-color="#134A38"/>
      <stop offset="1" stop-color="#0D3527"/>
    </linearGradient>
    <linearGradient id="scrim" x1="0" y1="0" x2="1" y2="0">
      <stop offset="0" stop-color="#0A0F0D" stop-opacity="0.92"/>
      <stop offset="0.36" stop-color="#0A0F0D" stop-opacity="0.32"/>
      <stop offset="0.56" stop-color="#0A0F0D" stop-opacity="0"/>
    </linearGradient>
    <radialGradient id="glowW" cx="0.5" cy="0.5" r="0.5">
      <stop offset="0" stop-color="#FFFFFF" stop-opacity="0.45"/>
      <stop offset="1" stop-color="#FFFFFF" stop-opacity="0"/>
    </radialGradient>
    <radialGradient id="glowG" cx="0.5" cy="0.5" r="0.5">
      <stop offset="0" stop-color="#10B981" stop-opacity="0.35"/>
      <stop offset="1" stop-color="#10B981" stop-opacity="0"/>
    </radialGradient>
  </defs>

  <rect width="1600" height="600" fill="url(#sky)"/>

  <circle cx="1120" cy="30" r="200" fill="url(#glowG)"/>
  <circle cx="720" cy="60" r="170" fill="url(#glowW)"/>
  <circle cx="1370" cy="120" r="150" fill="url(#glowW)"/>
  <circle cx="720" cy="60" r="4" fill="#FFFFFF"/>
  <circle cx="1120" cy="48" r="4" fill="#EAFFF2"/>
  <circle cx="1370" cy="120" r="3.5" fill="#FFFFFF"/>

  <polygon points="830,205 1190,205 1190,108 830,108" fill="#10241C" fill-opacity="0.55" stroke="#2A323C" stroke-width="2"/>
  <line x1="950" y1="108" x2="950" y2="205" stroke="#2A323C" stroke-width="1.4"/>
  <line x1="1070" y1="108" x2="1070" y2="205" stroke="#2A323C" stroke-width="1.4"/>

  <polygon points="580,478 1460,478 1190,205 830,205" fill="url(#turf)"/>
  <polygon points="580,478 1460,478 1190,205 830,205" fill="none" stroke="#CFE9DF" stroke-width="2.5" stroke-opacity="0.85"/>
  <line x1="642" y1="410" x2="1393" y2="410" stroke="#CFE9DF" stroke-width="2" stroke-opacity="0.6"/>
  <line x1="778" y1="262" x2="1246" y2="262" stroke="#CFE9DF" stroke-width="2" stroke-opacity="0.6"/>
  <line x1="1018" y1="410" x2="1012" y2="262" stroke="#CFE9DF" stroke-width="2" stroke-opacity="0.6"/>

  <line x1="706" y1="340" x2="1324" y2="340" stroke="#E8F2EE" stroke-width="5" stroke-opacity="0.9"/>
  <line x1="706" y1="330" x2="706" y2="349" stroke="#E8F2EE" stroke-width="3"/>
  <line x1="1324" y1="330" x2="1324" y2="349" stroke="#E8F2EE" stroke-width="3"/>

  <g fill="#070B09">
    <ellipse cx="860" cy="372" rx="18" ry="34"/>
    <circle cx="860" cy="320" r="16"/>
  </g>
  <line x1="853" y1="402" x2="847" y2="442" stroke="#070B09" stroke-width="8" stroke-linecap="round"/>
  <line x1="867" y1="402" x2="873" y2="442" stroke="#070B09" stroke-width="8" stroke-linecap="round"/>
  <line x1="874" y1="350" x2="903" y2="324" stroke="#070B09" stroke-width="9" stroke-linecap="round"/>
  <ellipse cx="911" cy="316" rx="14" ry="15" fill="#10B981"/>

  <g fill="#0A0F0C">
    <ellipse cx="1138" cy="262" rx="12" ry="23"/>
    <circle cx="1138" cy="228" r="11"/>
  </g>
  <line x1="1133" y1="282" x2="1129" y2="312" stroke="#0A0F0C" stroke-width="6" stroke-linecap="round"/>
  <line x1="1143" y1="282" x2="1147" y2="312" stroke="#0A0F0C" stroke-width="6" stroke-linecap="round"/>
  <line x1="1130" y1="246" x2="1110" y2="232" stroke="#0A0F0C" stroke-width="6" stroke-linecap="round"/>
  <ellipse cx="1104" cy="228" rx="9" ry="10" fill="#10B981"/>

  <line x1="955" y1="312" x2="980" y2="302" stroke="#9FE7C4" stroke-width="3" stroke-opacity="0.45" stroke-linecap="round"/>
  <circle cx="988" cy="300" r="9" fill="#E6F8EC" stroke="#10B981" stroke-width="2"/>

  <rect width="1600" height="600" fill="url(#scrim)"/>
</svg>
