<svg xmlns="http://www.w3.org/2000/svg" viewBox="0 0 1600 600" width="1600" height="600">
  <defs>
    <linearGradient id="skyL" x1="0" y1="0" x2="0" y2="1">
      <stop offset="0" stop-color="#EDF4F6"/>
      <stop offset="1" stop-color="#F9FCFD"/>
    </linearGradient>
    <linearGradient id="turfL" x1="0" y1="1" x2="0" y2="0">
      <stop offset="0" stop-color="#15976B"/>
      <stop offset="1" stop-color="#0F6E50"/>
    </linearGradient>
    <linearGradient id="scrimL" x1="0" y1="0" x2="1" y2="0">
      <stop offset="0" stop-color="#F9FCFD" stop-opacity="0.95"/>
      <stop offset="0.36" stop-color="#F9FCFD" stop-opacity="0.35"/>
      <stop offset="0.56" stop-color="#F9FCFD" stop-opacity="0"/>
    </linearGradient>
    <radialGradient id="amb" cx="0.5" cy="0.5" r="0.5">
      <stop offset="0" stop-color="#10B981" stop-opacity="0.12"/>
      <stop offset="1" stop-color="#10B981" stop-opacity="0"/>
    </radialGradient>
  </defs>

  <rect width="1600" height="600" fill="url(#skyL)"/>
  <circle cx="1120" cy="40" r="240" fill="url(#amb)"/>

  <polygon points="830,205 1190,205 1190,108 830,108" fill="#CFEEE0" fill-opacity="0.45" stroke="#9DB8AC" stroke-width="2"/>
  <line x1="950" y1="108" x2="950" y2="205" stroke="#9DB8AC" stroke-width="1.4"/>
  <line x1="1070" y1="108" x2="1070" y2="205" stroke="#9DB8AC" stroke-width="1.4"/>

  <polygon points="580,478 1460,478 1190,205 830,205" fill="url(#turfL)"/>
  <polygon points="580,478 1460,478 1190,205 830,205" fill="none" stroke="#FFFFFF" stroke-width="2.5" stroke-opacity="0.92"/>
  <line x1="642" y1="410" x2="1393" y2="410" stroke="#FFFFFF" stroke-width="2" stroke-opacity="0.7"/>
  <line x1="778" y1="262" x2="1246" y2="262" stroke="#FFFFFF" stroke-width="2" stroke-opacity="0.7"/>
  <line x1="1018" y1="410" x2="1012" y2="262" stroke="#FFFFFF" stroke-width="2" stroke-opacity="0.7"/>

  <line x1="706" y1="340" x2="1324" y2="340" stroke="#FFFFFF" stroke-width="5" stroke-opacity="0.95"/>
  <line x1="706" y1="330" x2="706" y2="349" stroke="#FFFFFF" stroke-width="3"/>
  <line x1="1324" y1="330" x2="1324" y2="349" stroke="#FFFFFF" stroke-width="3"/>

  <g fill="#1D232A">
    <ellipse cx="860" cy="372" rx="18" ry="34"/>
    <circle cx="860" cy="320" r="16"/>
  </g>
  <line x1="853" y1="402" x2="847" y2="442" stroke="#1D232A" stroke-width="8" stroke-linecap="round"/>
  <line x1="867" y1="402" x2="873" y2="442" stroke="#1D232A" stroke-width="8" stroke-linecap="round"/>
  <line x1="874" y1="350" x2="903" y2="324" stroke="#1D232A" stroke-width="9" stroke-linecap="round"/>
  <ellipse cx="911" cy="316" rx="14" ry="15" fill="#10B981"/>

  <g fill="#2A323C">
    <ellipse cx="1138" cy="262" rx="12" ry="23"/>
    <circle cx="1138" cy="228" r="11"/>
  </g>
  <line x1="1133" y1="282" x2="1129" y2="312" stroke="#2A323C" stroke-width="6" stroke-linecap="round"/>
  <line x1="1143" y1="282" x2="1147" y2="312" stroke="#2A323C" stroke-width="6" stroke-linecap="round"/>
  <line x1="1130" y1="246" x2="1110" y2="232" stroke="#2A323C" stroke-width="6" stroke-linecap="round"/>
  <ellipse cx="1104" cy="228" rx="9" ry="10" fill="#10B981"/>

  <circle cx="988" cy="300" r="9" fill="#FFFFFF" stroke="#10B981" stroke-width="2"/>

  <rect width="1600" height="600" fill="url(#scrimL)"/>
</svg>
