<svg xmlns="http://www.w3.org/2000/svg" viewBox="0 0 24 24">
    <g transform="rotate(-45 12 12)">
        <!-- Head -->
        <path d="M12 2C7.5 2 4 5.5 4 10c0 2.5 1.5 4.5 3.5 5.5L8.5 17h7l1-1.5c2-1 3.5-3 3.5-5.5 0-4.5-3.5-8-8-8z" fill="#10b981" stroke="#000" stroke-width="0.8"/>
        <!-- Triangular Bridge Hole -->
        <path d="M12 14.5l-2-2.5h4z" fill="white" stroke="#000" stroke-width="0.3"/>
        <!-- Handle -->
        <path d="M10 17h4l0.5 5h-5z" fill="#1f2937" stroke="#000" stroke-width="0.5"/>
        <!-- Hole Pattern -->
        <g fill="white">
            <circle cx="10" cy="6" r="0.4"/> <circle cx="12" cy="6" r="0.4"/> <circle cx="14" cy="6" r="0.4"/>
            <circle cx="9" cy="8" r="0.4"/> <circle cx="11" cy="8" r="0.4"/> <circle cx="13" cy="8" r="0.4"/> <circle cx="15" cy="8" r="0.4"/>
            <circle cx="8" cy="10" r="0.4"/> <circle cx="10" cy="10" r="0.4"/> <circle cx="12" cy="10" r="0.4"/> <circle cx="14" cy="10" r="0.4"/> <circle cx="16" cy="10" r="0.4"/>
            <circle cx="9" cy="12" r="0.4"/> <circle cx="11" cy="12" r="0.4"/> <circle cx="13" cy="12" r="0.4"/> <circle cx="15" cy="12" r="0.4"/>
        </g>
    </g>
</svg>
