<svg xmlns="http://www.w3.org/2000/svg" viewBox="0 0 24 24">
    <g transform="rotate(-45 12 12)">
        <!-- Racket Head -->
        <path d="M12 2C7.5 2 4 5.5 4 10c0 2.5 1.5 4.5 3.5 5.5L8.5 17h7l1-1.5c2-1 3.5-3 3.5-5.5 0-4.5-3.5-8-8-8z" fill="#10b981" stroke="#000" stroke-width="0.8"/>
        <!-- Bridge Hole -->
        <path d="M12 14.8l-2.2-2.8h4.4z" fill="white" stroke="#000" stroke-width="0.4"/>
        <!-- Handle -->
        <path d="M10 17h4l0.5 5h-5z" fill="#1a1a1a" stroke="#000" stroke-width="0.5"/>
        <!-- Dense Hole Pattern -->
        <g fill="white">
            <circle cx="10" cy="5.5" r="0.35"/> <circle cx="12" cy="5.5" r="0.35"/> <circle cx="14" cy="5.5" r="0.35"/>
            <circle cx="9" cy="7.2" r="0.35"/> <circle cx="11" cy="7.2" r="0.35"/> <circle cx="13" cy="7.2" r="0.35"/> <circle cx="15" cy="7.2" r="0.35"/>
            <circle cx="8" cy="8.9" r="0.35"/> <circle cx="10" cy="8.9" r="0.35"/> <circle cx="12" cy="8.9" r="0.35"/> <circle cx="14" cy="8.9" r="0.35"/> <circle cx="16" cy="8.9" r="0.35"/>
            <circle cx="7.5" cy="10.6" r="0.35"/> <circle cx="9.5" cy="10.6" r="0.35"/> <circle cx="11.5" cy="10.6" r="0.35"/> <circle cx="13.5" cy="10.6" r="0.35"/> <circle cx="15.5" cy="10.6" r="0.35"/>
            <circle cx="8" cy="12.3" r="0.35"/> <circle cx="10" cy="12.3" r="0.35"/> <circle cx="12" cy="12.3" r="0.35"/> <circle cx="14" cy="12.3" r="0.35"/> <circle cx="16" cy="12.3" r="0.35"/>
            <circle cx="9" cy="14" r="0.35"/> <circle cx="11" cy="14" r="0.35"/> <circle cx="13" cy="14" r="0.35"/> <circle cx="15" cy="14" r="0.35"/>
        </g>
    </g>
</svg>
